<?xml version="1.0" encoding="UTF-8"?>
<svg xmlns="http://www.w3.org/2000/svg" xmlns:xlink="http://www.w3.org/1999/xlink" viewBox="0 0 847.8 893.88">
  <defs>
    <style>
      .cls-1 {
        fill: url(#linear-gradient-2);
      }

      .cls-2 {
        fill: #fff;
      }

      .cls-3 {
        fill: url(#linear-gradient-17);
      }

      .cls-4 {
        fill: url(#Degradado_sin_nombre_191-2);
      }

      .cls-4, .cls-5, .cls-6, .cls-7 {
        opacity: .33;
      }

      .cls-8 {
        fill: url(#linear-gradient-15);
      }

      .cls-9 {
        fill: url(#linear-gradient-18);
      }

      .cls-5 {
        fill: url(#Degradado_sin_nombre_191-4);
      }

      .cls-10 {
        fill: url(#linear-gradient-14);
      }

      .cls-11 {
        fill: url(#linear-gradient-6);
      }

      .cls-12 {
        isolation: isolate;
      }

      .cls-13 {
        fill: url(#linear-gradient-11);
      }

      .cls-14 {
        fill: url(#linear-gradient-10);
      }

      .cls-6 {
        fill: url(#Degradado_sin_nombre_191-3);
      }

      .cls-15 {
        fill: url(#radial-gradient);
      }

      .cls-16 {
        fill: url(#linear-gradient-16);
      }

      .cls-17 {
        fill: url(#Unnamed_Pattern_3);
      }

      .cls-17, .cls-18, .cls-19, .cls-20 {
        mix-blend-mode: overlay;
      }

      .cls-17, .cls-19 {
        opacity: .47;
      }

      .cls-21 {
        fill: url(#linear-gradient-5);
      }

      .cls-22 {
        clip-path: url(#clippath);
      }

      .cls-23, .cls-24 {
        fill: none;
      }

      .cls-25 {
        fill: url(#linear-gradient-7);
      }

      .cls-18 {
        fill: url(#Unnamed_Pattern_4);
        opacity: .59;
      }

      .cls-19 {
        fill: url(#Unnamed_Pattern_3-2);
      }

      .cls-26 {
        fill: url(#linear-gradient-9);
      }

      .cls-27 {
        fill: url(#linear-gradient-3);
      }

      .cls-28 {
        fill: url(#linear-gradient);
      }

      .cls-24 {
        stroke: #fff;
        stroke-miterlimit: 10;
        stroke-width: .91px;
      }

      .cls-29 {
        fill: url(#linear-gradient-4);
      }

      .cls-30 {
        fill: url(#linear-gradient-8);
      }

      .cls-7 {
        fill: url(#Degradado_sin_nombre_191);
      }

      .cls-31 {
        fill: url(#linear-gradient-12);
      }

      .cls-32 {
        fill: url(#linear-gradient-13);
      }
    </style>
    <radialGradient id="radial-gradient" cx="399.1" cy="443.81" fx="399.1" fy="443.81" r="558.67" gradientTransform="translate(0 192.82) scale(1 .57)" gradientUnits="userSpaceOnUse">
      <stop offset="0" stop-color="#59006c"/>
      <stop offset="1" stop-color="#140034"/>
    </radialGradient>
    <clipPath id="clippath">
      <rect class="cls-23" x="24.1" y="193.81" width="750" height="500" transform="translate(-44.71 842.91) rotate(-90)"/>
    </clipPath>
    <linearGradient id="Degradado_sin_nombre_191" data-name="Degradado sin nombre 191" x1="457.2" y1="194.76" x2="474.95" y2="345.22" gradientTransform="translate(254.4 983.2) rotate(-97.01)" gradientUnits="userSpaceOnUse">
      <stop offset="0" stop-color="#360076"/>
      <stop offset="1" stop-color="#140034"/>
    </linearGradient>
    <linearGradient id="Degradado_sin_nombre_191-2" data-name="Degradado sin nombre 191" x1="163.35" y1="248.99" x2="181.09" y2="399.46" gradientTransform="translate(79.74 506.65) rotate(53.46) scale(1 -1)" xlink:href="#Degradado_sin_nombre_191"/>
    <pattern id="Unnamed_Pattern_4" data-name="Unnamed Pattern 4" x="0" y="0" width="7.83" height="10" patternTransform="translate(-14831 -14888.58) rotate(-179.26) scale(.93)" patternUnits="userSpaceOnUse" viewBox="0 0 7.83 10">
      <g>
        <rect class="cls-23" y="0" width="7.83" height="10"/>
        <circle class="cls-2" cx="5.42" cy="11" r="1.5"/>
        <circle class="cls-2" cx="1.5" cy="6" r="1.5"/>
        <circle class="cls-2" cx="5.42" cy="1" r="1.5"/>
      </g>
    </pattern>
    <linearGradient id="linear-gradient" x1="401.88" y1="549.54" x2="434.2" y2="669.14" gradientTransform="translate(-44.71 842.91) rotate(-90)" gradientUnits="userSpaceOnUse">
      <stop offset="0" stop-color="#73005f"/>
      <stop offset="1" stop-color="#140034"/>
    </linearGradient>
    <linearGradient id="Degradado_sin_nombre_191-3" data-name="Degradado sin nombre 191" x1="3998.11" y1="1794.52" x2="4010.86" y2="1902.7" gradientTransform="translate(1612.17 -3633.83) rotate(82.65)" xlink:href="#Degradado_sin_nombre_191"/>
    <linearGradient id="Degradado_sin_nombre_191-4" data-name="Degradado sin nombre 191" x1="4019.91" y1="1759.48" x2="4033.15" y2="1871.7" gradientTransform="translate(4637.82 1572.09) rotate(-142.76) scale(1 -1)" xlink:href="#Degradado_sin_nombre_191"/>
    <linearGradient id="linear-gradient-2" x1="4090.48" y1="1650.19" x2="4113.72" y2="1736.19" gradientTransform="translate(1921.21 -3491.66) rotate(90)" xlink:href="#linear-gradient"/>
    <linearGradient id="linear-gradient-3" x1="676.96" y1="998.82" x2="397.47" y2="733.3" gradientTransform="translate(-378.01 650.36) rotate(-82.14)" gradientUnits="userSpaceOnUse">
      <stop offset="0" stop-color="#311445"/>
      <stop offset=".12" stop-color="#3f1246"/>
      <stop offset=".34" stop-color="#660e4b"/>
      <stop offset=".64" stop-color="#a50852"/>
      <stop offset="1" stop-color="#f8005c"/>
    </linearGradient>
    <linearGradient id="linear-gradient-4" x1="745.05" y1="740.6" x2="514.52" y2="528.58" gradientTransform="translate(-44.71 842.91) rotate(-90)" gradientUnits="userSpaceOnUse">
      <stop offset="0" stop-color="#311445"/>
      <stop offset=".08" stop-color="#3f1246"/>
      <stop offset=".22" stop-color="#660e4b"/>
      <stop offset=".42" stop-color="#a50852"/>
      <stop offset=".66" stop-color="#f8005c"/>
      <stop offset=".72" stop-color="#f8055c"/>
      <stop offset=".79" stop-color="#f9165d"/>
      <stop offset=".87" stop-color="#fb325f"/>
      <stop offset=".96" stop-color="#fd5961"/>
      <stop offset="1" stop-color="#ff7063"/>
    </linearGradient>
    <linearGradient id="linear-gradient-5" x1="752.97" y1="772.76" x2="566.39" y2="558.43" xlink:href="#linear-gradient-4"/>
    <linearGradient id="linear-gradient-6" x1="83.89" y1="127.57" x2="188.89" y2="306.4" gradientTransform="translate(-44.71 842.91) rotate(-90)" gradientUnits="userSpaceOnUse">
      <stop offset="0" stop-color="#311445"/>
      <stop offset=".08" stop-color="#361345"/>
      <stop offset=".17" stop-color="#451147"/>
      <stop offset=".28" stop-color="#5e0f4a"/>
      <stop offset=".39" stop-color="#820b4e"/>
      <stop offset=".51" stop-color="#af0753"/>
      <stop offset=".63" stop-color="#e50159"/>
      <stop offset=".66" stop-color="#f8005c"/>
      <stop offset=".72" stop-color="#f8055c"/>
      <stop offset=".79" stop-color="#f9165d"/>
      <stop offset=".87" stop-color="#fb325f"/>
      <stop offset=".96" stop-color="#fd5961"/>
      <stop offset="1" stop-color="#ff7063"/>
    </linearGradient>
    <linearGradient id="linear-gradient-7" x1="68.87" y1="116.95" x2="131.73" y2="245.03" gradientTransform="translate(-44.71 842.91) rotate(-90)" gradientUnits="userSpaceOnUse">
      <stop offset="0" stop-color="#311445"/>
      <stop offset=".06" stop-color="#3f1246"/>
      <stop offset=".17" stop-color="#660e4b"/>
      <stop offset=".33" stop-color="#a50852"/>
      <stop offset=".51" stop-color="#f8005c"/>
      <stop offset=".59" stop-color="#f8055c"/>
      <stop offset=".69" stop-color="#f9165d"/>
      <stop offset=".81" stop-color="#fb325f"/>
      <stop offset=".94" stop-color="#fd5961"/>
      <stop offset="1" stop-color="#ff7063"/>
    </linearGradient>
    <pattern id="Unnamed_Pattern_3" data-name="Unnamed Pattern 3" x="0" y="0" width="18.99" height="18.74" patternTransform="translate(1803.48 1657.42) scale(1.21)" patternUnits="userSpaceOnUse" viewBox="0 0 18.99 18.74">
      <g>
        <rect class="cls-23" width="18.99" height="18.74"/>
        <polygon class="cls-2" points="19 18.74 0 24.99 0 22.99 19 16.74 19 18.74"/>
        <polygon class="cls-2" points="0 18.74 -18.99 24.99 -18.99 22.99 0 16.74 0 18.74"/>
        <polygon class="cls-2" points="19 12.49 0 18.74 0 16.74 19 10.49 19 12.49"/>
        <polygon class="cls-2" points="0 12.49 -18.99 18.74 -18.99 16.74 0 10.49 0 12.49"/>
        <polygon class="cls-2" points="19 6.24 0 12.49 0 10.49 19 4.24 19 6.24"/>
        <polygon class="cls-2" points="0 6.24 -18.99 12.49 -18.99 10.49 0 4.24 0 6.24"/>
        <polygon class="cls-2" points="19 0 0 6.25 0 4.25 19 -2 19 0"/>
        <polygon class="cls-2" points="0 0 -18.99 6.25 -18.99 4.25 0 -2 0 0"/>
      </g>
    </pattern>
    <pattern id="Unnamed_Pattern_3-2" data-name="Unnamed Pattern 3" patternTransform="translate(127.05 22.66)" xlink:href="#Unnamed_Pattern_3"/>
    <linearGradient id="linear-gradient-8" x1="584.11" y1="244.62" x2="684.11" y2="244.62" gradientTransform="translate(-44.71 842.91) rotate(-90)" gradientUnits="userSpaceOnUse">
      <stop offset="0" stop-color="#fff" stop-opacity="0"/>
      <stop offset="1" stop-color="#fff"/>
    </linearGradient>
    <linearGradient id="linear-gradient-9" x1="531.17" y1="507.67" x2="631.17" y2="507.67" xlink:href="#linear-gradient-8"/>
    <linearGradient id="linear-gradient-10" x1="273.8" y1="375.91" x2="373.8" y2="375.91" xlink:href="#linear-gradient-8"/>
    <linearGradient id="linear-gradient-11" x1="359.42" y1="534.91" x2="459.42" y2="534.91" xlink:href="#linear-gradient-8"/>
    <linearGradient id="linear-gradient-12" x1="699.18" y1="328.34" x2="799.18" y2="328.34" xlink:href="#linear-gradient-8"/>
    <linearGradient id="linear-gradient-13" x1="590.45" y1="688.49" x2="690.45" y2="688.49" xlink:href="#linear-gradient-8"/>
    <linearGradient id="linear-gradient-14" x1="46.84" y1="260.39" x2="146.84" y2="260.39" xlink:href="#linear-gradient-8"/>
    <linearGradient id="linear-gradient-15" x1="6.06" y1="627.33" x2="106.06" y2="627.33" xlink:href="#linear-gradient-8"/>
    <linearGradient id="linear-gradient-16" x1="155.45" y1="637.62" x2="255.45" y2="637.62" xlink:href="#linear-gradient-8"/>
    <linearGradient id="linear-gradient-17" x1="44.78" y1="434.88" x2="144.78" y2="434.88" xlink:href="#linear-gradient-8"/>
    <linearGradient id="linear-gradient-18" x1="345.88" y1="252.89" x2="445.88" y2="252.89" xlink:href="#linear-gradient-8"/>
  </defs>
  <g class="cls-12">
    <g id="BACKGROUND">
      <rect class="cls-15" x="24.1" y="193.81" width="750" height="500" transform="translate(-44.71 842.91) rotate(-90)"/>
    </g>
    <g id="OBJECTS">
      <g class="cls-22">
        <path class="cls-7" d="m637.76,890.77c30.5-34.61,26.82-89.04,5.74-130.07-21.08-41.03-51.51-72.9-82.54-107.03-45.13-49.65-86.01-83.21-98.92-149.05-7-35.7,2.96-71.55,6.87-106.98,3.67-33.27-2.47-68.47-22.66-95.82-15.8-21.4-38.74-36.37-62.2-48.92-23.45-12.55-48.04-23.21-69.93-38.31-19.06-13.15-36.28-30.18-44.99-51.63-6.15-15.14-7.7-31.9-5.43-48.03.98-6.97,2.61-13.73,5.31-20.23,1.39-3.34,7.36-18.6,11.36-19.12,0,0,312.77-41.51,312.77-41.51l104.96,854.13-60.33,2.58Z"/>
        <path class="cls-4" d="m289.89,41.13c45.95,4.07,80.79,46.06,93.77,90.32,12.99,44.26,12.89,88.33,13.92,134.44,1.5,67.08-5.01,119.56,31,176.18,19.53,30.7,51.44,49.82,78.68,72.8,25.59,21.59,45.38,51.33,49.59,85.06,3.29,26.4-3.02,53.05-11.37,78.31-8.36,25.25-18.83,49.92-24.29,75.95-4.76,22.66-5.5,46.87,2.96,68.42,5.97,15.21,16.4,28.43,29.15,38.55,5.51,4.38,11.35,8.15,17.79,11,3.31,1.47,18.15,8.41,21.41,6.04,0,0,255.29-185.41,255.29-185.41L335.4,1.43l-45.5,39.7Z"/>
        <path class="cls-18" d="m376.57,88.11c4.82,48.41,24.43,94.89,54.62,130.85,24.58,29.28,56.11,52.32,74.59,86.47,43.29,80-.87,172.01,1.94,256.65,7.53,226.24,184,310.86,184,310.86l63.05-827.84s-23.84-6.69-59.09-16.58h-318.32c-2.5,19.71-2.76,39.87-.8,59.58Z"/>
        <path class="cls-28" d="m437.88,132.38c4,37.03,20.27,72.57,45.34,100.08,20.4,22.39,46.57,40.01,61.91,66.13,35.93,61.18-.72,131.55,1.61,196.28,6.25,173.02,109.25,166.2,120.25,270.2,6.73,63.67,84.81-665.58,84.81-665.58,0,0-19.79-5.12-49.05-12.68h-264.21c-2.08,15.07-2.29,30.49-.67,45.57Z"/>
        <path class="cls-6" d="m148.24,299.42l-25.79-2.67,76.85,595.64s224.71-31.21,224.71-31.21c2.87-.4,7.1-11.39,8.08-13.8,1.91-4.68,3.06-9.55,3.73-14.57,1.56-11.6.37-23.65-4.11-34.51-6.36-15.39-18.81-27.56-32.58-36.93-15.81-10.76-33.53-18.32-50.45-27.24-16.92-8.92-33.48-19.59-44.93-34.91-14.64-19.58-19.21-44.86-16.71-68.8,2.66-25.49,9.66-51.31,4.47-76.95-9.57-47.29-39.11-71.24-71.77-106.74-22.46-24.41-44.47-47.19-59.81-76.6-11.18-21.43-15.73-48.02-8.95-70.55-.92-.03-1.83-.07-2.74-.17Z"/>
        <path class="cls-5" d="m506.87,851.47l-10.93,24.57L0,499s144.23-185.96,144.23-185.96c1.84-2.37,13.92-.5,16.59-.14,5.2.7,10.17,2.19,15.03,4.18,11.24,4.6,21.46,11.89,28.91,21.54,10.55,13.67,15.06,31.17,16.37,48.39,1.51,19.78-.86,39.63-1.58,59.45-.72,19.83.31,40.23,8.16,58.45,10.04,23.29,30.41,40.46,53.23,50.6,24.3,10.79,51.14,17.84,71.51,35.76,37.58,33.05,43.85,71.99,58.89,119.73,10.34,32.82,19.45,64.39,37.97,93.39,13.5,21.13,35.06,38.97,58.83,44.52-.45.84-.88,1.68-1.27,2.55Z"/>
        <path class="cls-18" d="m360.14,851.04c-3.47-34.81-17.56-68.23-39.27-94.09-17.67-21.05-40.34-37.62-53.63-62.18-31.13-57.52.63-123.68-1.4-184.54-5.41-162.67-132.3-223.52-132.3-223.52l-45.34,595.25s17.14,4.81,42.49,11.92h228.88c1.8-14.17,1.99-28.67.58-42.84Z"/>
        <path class="cls-1" d="m319.16,820.76c-2.88-26.62-14.58-52.18-32.6-71.96-14.67-16.1-33.49-28.77-44.52-47.55-25.84-43.99.52-94.59-1.16-141.14-4.49-124.41-78.56-119.5-86.46-194.28-4.84-45.78-60.98,478.58-60.98,478.58,0,0,14.23,3.68,35.27,9.12h189.98c1.49-10.84,1.65-21.93.48-32.76Z"/>
        <path class="cls-27" d="m232.86,8.93c-11.06.96,18.01,78.53,20.64,85.49,15.75,41.66,42.67,79.37,85.16,97.51,37.84,16.15,61.44.84,94.21-16.56,50.04-26.57,131.14-19.15,135.98,50.72,4.68,67.58-91.25,143.84-10.16,203.29,39.35,28.85,60.54,84.68,46.38,133.59-8.33,28.79,19.43,73.04,49.12,77.14l7.76-26.38,63.15-561.02L343.22,0s-110.19,8.91-110.35,8.93Z"/>
        <path class="cls-29" d="m404.86,53.89s-47.52,109.75,92.51,115.65c89.57,3.77,95.67,61.29,68.69,170.56-28,113.35,99.39,151.31,99.39,151.31V53.89h-260.59Z"/>
        <path class="cls-21" d="m665.44,425.61s-55.25-4.11-65.53-65.5c-9.54-56.96,53.2-141.64-10.79-168.63-63.99-26.98-11.31-94.32-89.43-89.43-52.13,3.26-53.2-48.16-53.2-48.16h218.96v371.72Z"/>
        <path class="cls-11" d="m336.7,840.55s37.11-85.71-72.24-90.31c-69.94-2.94-74.71-47.86-53.64-133.19,21.86-88.52-77.61-118.16-77.61-118.16v341.65h203.49Z"/>
        <path class="cls-25" d="m137.18,563.79s41.14,3.06,48.79,48.76c7.1,42.41-39.61,105.46,8.04,125.55,47.64,20.09,8.42,70.22,66.59,66.59,38.81-2.43,39.61,35.86,39.61,35.86h-163.02v-276.76Z"/>
        <g class="cls-20">
          <circle class="cls-2" cx="621.74" cy="304.24" r="1.76"/>
          <circle class="cls-2" cx="631.88" cy="304.24" r="1.76"/>
          <circle class="cls-2" cx="621.74" cy="315.75" r="1.76"/>
          <circle class="cls-2" cx="631.88" cy="315.75" r="1.76"/>
          <circle class="cls-2" cx="621.74" cy="327.26" r="1.76"/>
          <circle class="cls-2" cx="631.88" cy="327.26" r="1.76"/>
          <circle class="cls-2" cx="621.74" cy="338.78" r="1.76" transform="translate(188.24 898.6) rotate(-80.83)"/>
          <circle class="cls-2" cx="631.88" cy="338.78" r="1.76" transform="translate(196.76 908.61) rotate(-80.83)"/>
          <circle class="cls-2" cx="621.74" cy="350.29" r="1.76"/>
          <circle class="cls-2" cx="631.88" cy="350.29" r="1.76"/>
          <path class="cls-2" d="m623.5,361.8c0,.97-.79,1.76-1.76,1.76s-1.76-.79-1.76-1.76.79-1.76,1.76-1.76,1.76.79,1.76,1.76Z"/>
          <path class="cls-2" d="m633.64,361.8c0,.97-.79,1.76-1.76,1.76s-1.76-.79-1.76-1.76.79-1.76,1.76-1.76,1.76.79,1.76,1.76Z"/>
          <circle class="cls-2" cx="621.74" cy="373.32" r="1.76"/>
          <circle class="cls-2" cx="631.88" cy="373.32" r="1.76"/>
        </g>
        <g class="cls-20">
          <circle class="cls-2" cx="163.09" cy="474.85" r="1.76"/>
          <circle class="cls-2" cx="173.23" cy="474.85" r="1.76"/>
          <circle class="cls-2" cx="163.09" cy="486.36" r="1.76"/>
          <circle class="cls-2" cx="173.23" cy="486.36" r="1.76"/>
          <circle class="cls-2" cx="163.09" cy="497.87" r="1.76"/>
          <circle class="cls-2" cx="173.23" cy="497.87" r="1.76"/>
          <circle class="cls-2" cx="163.09" cy="509.39" r="1.76"/>
          <circle class="cls-2" cx="173.23" cy="509.39" r="1.76"/>
          <circle class="cls-2" cx="163.09" cy="520.9" r="1.76"/>
          <circle class="cls-2" cx="173.23" cy="520.9" r="1.76"/>
          <path class="cls-2" d="m164.85,532.41c0,.97-.79,1.76-1.76,1.76s-1.76-.79-1.76-1.76.79-1.76,1.76-1.76,1.76.79,1.76,1.76Z"/>
          <path class="cls-2" d="m174.99,532.41c0,.97-.79,1.76-1.76,1.76s-1.76-.79-1.76-1.76.79-1.76,1.76-1.76,1.76.79,1.76,1.76Z"/>
          <circle class="cls-2" cx="163.09" cy="543.93" r="1.76"/>
          <circle class="cls-2" cx="173.23" cy="543.93" r="1.76"/>
        </g>
        <g>
          <circle class="cls-2" cx="212.56" cy="96.04" r="1.76"/>
          <circle class="cls-2" cx="212.56" cy="106.17" r="1.76"/>
          <circle class="cls-2" cx="201.04" cy="96.04" r="1.76"/>
          <circle class="cls-2" cx="201.04" cy="106.17" r="1.76"/>
          <circle class="cls-2" cx="189.53" cy="96.04" r="1.76"/>
          <circle class="cls-2" cx="189.53" cy="106.17" r="1.76"/>
          <circle class="cls-2" cx="178.02" cy="96.04" r="1.76"/>
          <circle class="cls-2" cx="178.02" cy="106.17" r="1.76"/>
          <circle class="cls-2" cx="166.5" cy="96.04" r="1.76"/>
          <circle class="cls-2" cx="166.5" cy="106.17" r="1.76"/>
          <path class="cls-2" d="m154.99,97.8c-.97,0-1.76-.79-1.76-1.76s.79-1.76,1.76-1.76,1.76.79,1.76,1.76-.79,1.76-1.76,1.76Z"/>
          <path class="cls-2" d="m154.99,107.94c-.97,0-1.76-.79-1.76-1.76s.79-1.76,1.76-1.76,1.76.79,1.76,1.76-.79,1.76-1.76,1.76Z"/>
          <circle class="cls-2" cx="143.48" cy="96.04" r="1.76"/>
          <circle class="cls-2" cx="143.48" cy="106.17" r="1.76"/>
        </g>
        <g>
          <circle class="cls-2" cx="621.09" cy="785.13" r="1.76"/>
          <circle class="cls-2" cx="621.09" cy="795.27" r="1.76"/>
          <circle class="cls-2" cx="609.57" cy="785.13" r="1.76"/>
          <circle class="cls-2" cx="609.57" cy="795.27" r="1.76"/>
          <circle class="cls-2" cx="598.06" cy="785.13" r="1.76"/>
          <circle class="cls-2" cx="598.06" cy="795.27" r="1.76"/>
          <circle class="cls-2" cx="586.55" cy="785.13" r="1.76"/>
          <circle class="cls-2" cx="586.55" cy="795.27" r="1.76"/>
          <circle class="cls-2" cx="575.03" cy="785.13" r="1.76"/>
          <circle class="cls-2" cx="575.03" cy="795.27" r="1.76"/>
          <path class="cls-2" d="m563.52,786.89c-.97,0-1.76-.79-1.76-1.76s.79-1.76,1.76-1.76,1.76.79,1.76,1.76-.79,1.76-1.76,1.76Z"/>
          <path class="cls-2" d="m563.52,797.03c-.97,0-1.76-.79-1.76-1.76s.79-1.76,1.76-1.76,1.76.79,1.76,1.76-.79,1.76-1.76,1.76Z"/>
          <circle class="cls-2" cx="552.01" cy="785.13" r="1.76"/>
          <circle class="cls-2" cx="552.01" cy="795.27" r="1.76"/>
        </g>
        <circle class="cls-17" cx="474.99" cy="169.39" r="43.61" transform="translate(202.83 593.94) rotate(-76.97)"/>
        <circle class="cls-17" cx="314.98" cy="760.45" r="43.61" transform="translate(-486.11 949.55) rotate(-80.78)"/>
        <circle class="cls-19" cx="258.62" cy="248.82" r="26"/>
        <g>
          <g class="cls-20">
            <path class="cls-24" d="m505.62,80.32c4.37,0,4.37,8,8.75,8s4.37-8,8.75-8,4.37,8,8.75,8,4.37-8,8.75-8,4.37,8,8.75,8,4.37-8,8.75-8,4.38,8,8.75,8,4.37-8,8.75-8,4.37,8,8.75,8,4.37-8,8.75-8,4.37,8,8.75,8,4.38-8,8.75-8,4.38,8,8.75,8,4.38-8,8.75-8,4.38,8,8.76,8,4.38-8,8.76-8"/>
          </g>
          <g class="cls-20">
            <path class="cls-24" d="m505.62,93.32c4.37,0,4.37,8,8.75,8s4.37-8,8.75-8,4.37,8,8.75,8,4.37-8,8.75-8,4.37,8,8.75,8,4.37-8,8.75-8,4.38,8,8.75,8,4.37-8,8.75-8,4.37,8,8.75,8,4.37-8,8.75-8,4.37,8,8.75,8,4.38-8,8.75-8,4.38,8,8.75,8,4.38-8,8.75-8,4.38,8,8.76,8,4.38-8,8.76-8"/>
          </g>
        </g>
        <g>
          <g class="cls-20">
            <path class="cls-24" d="m157.16,813.08c0-4.37,8-4.37,8-8.75s-8-4.37-8-8.75,8-4.37,8-8.75-8-4.37-8-8.75,8-4.37,8-8.75-8-4.37-8-8.75,8-4.38,8-8.75-8-4.37-8-8.75,8-4.37,8-8.75-8-4.37-8-8.75,8-4.37,8-8.75-8-4.38-8-8.75,8-4.38,8-8.75-8-4.38-8-8.75,8-4.38,8-8.76-8-4.38-8-8.76"/>
          </g>
          <g class="cls-20">
            <path class="cls-24" d="m170.16,813.08c0-4.37,8-4.37,8-8.75s-8-4.37-8-8.75,8-4.37,8-8.75-8-4.37-8-8.75,8-4.37,8-8.75-8-4.37-8-8.75,8-4.38,8-8.75-8-4.37-8-8.75,8-4.37,8-8.75-8-4.37-8-8.75,8-4.37,8-8.75-8-4.38-8-8.75,8-4.38,8-8.75-8-4.38-8-8.75,8-4.38,8-8.76-8-4.38-8-8.76"/>
          </g>
        </g>
        <g class="cls-20">
          <path class="cls-30" d="m249.92,257.8c0,.26-.1.51-.29.71-.39.39-1.02.39-1.41,0l-98-98c-.39-.39-.39-1.02,0-1.41.39-.39,1.02-.39,1.41,0l98,98c.2.2.29.45.29.71Z"/>
        </g>
        <g class="cls-20">
          <path class="cls-26" d="m512.97,310.74c0,.26-.1.51-.29.71-.39.39-1.02.39-1.41,0l-98-98c-.39-.39-.39-1.02,0-1.41.39-.39,1.02-.39,1.41,0l98,98c.2.2.29.45.29.71Z"/>
        </g>
        <g class="cls-20">
          <path class="cls-14" d="m381.2,568.12c0,.26-.1.51-.29.71-.39.39-1.02.39-1.41,0l-98-98c-.39-.39-.39-1.02,0-1.41s1.02-.39,1.41,0l98,98c.2.2.29.45.29.71Z"/>
        </g>
        <g class="cls-20">
          <path class="cls-13" d="m540.21,482.5c0,.26-.1.51-.29.71-.39.39-1.02.39-1.41,0l-98-98c-.39-.39-.39-1.02,0-1.41.39-.39,1.02-.39,1.41,0l98,98c.2.2.29.45.29.71Z"/>
        </g>
        <g class="cls-20">
          <path class="cls-31" d="m333.63,142.74c0,.26-.1.51-.29.71-.39.39-1.02.39-1.41,0l-98-98c-.39-.39-.39-1.02,0-1.41.39-.39,1.02-.39,1.41,0l98,98c.2.2.29.45.29.71Z"/>
        </g>
        <g class="cls-20">
          <path class="cls-32" d="m693.78,251.46c0,.26-.1.51-.29.71-.39.39-1.02.39-1.41,0l-98-98c-.39-.39-.39-1.02,0-1.41.39-.39,1.02-.39,1.41,0l98,98c.2.2.29.45.29.71Z"/>
        </g>
        <g class="cls-20">
          <path class="cls-10" d="m265.68,795.08c0,.26-.1.51-.29.71-.39.39-1.02.39-1.41,0l-98-98c-.39-.39-.39-1.02,0-1.41s1.02-.39,1.41,0l98,98c.2.2.29.45.29.71Z"/>
        </g>
        <g class="cls-20">
          <path class="cls-8" d="m632.62,835.85c0,.26-.1.51-.29.71-.39.39-1.02.39-1.41,0l-98-98c-.39-.39-.39-1.02,0-1.41.39-.39,1.02-.39,1.41,0l98,98c.2.2.29.45.29.71Z"/>
        </g>
        <g class="cls-20">
          <path class="cls-16" d="m642.91,686.46c0,.26-.1.51-.29.71-.39.39-1.02.39-1.41,0l-98-98c-.39-.39-.39-1.02,0-1.41.39-.39,1.02-.39,1.41,0l98,98c.2.2.29.45.29.71Z"/>
        </g>
        <g class="cls-20">
          <path class="cls-3" d="m440.17,797.14c0,.26-.1.51-.29.71-.39.39-1.02.39-1.41,0l-98-98c-.39-.39-.39-1.02,0-1.41.39-.39,1.02-.39,1.41,0l98,98c.2.2.29.45.29.71Z"/>
        </g>
        <g class="cls-20">
          <path class="cls-9" d="m258.19,496.03c0,.26-.1.51-.29.71-.39.39-1.02.39-1.41,0l-98-98c-.39-.39-.39-1.02,0-1.41s1.02-.39,1.41,0l98,98c.2.2.29.45.29.71Z"/>
        </g>
      </g>
    </g>
  </g>
</svg>