<?xml version="1.0" encoding="utf-8"?>
<!-- Generator: Adobe Illustrator 27.2.0, SVG Export Plug-In . SVG Version: 6.00 Build 0)  -->
<svg version="1.1" id="Layer_1" xmlns="http://www.w3.org/2000/svg" xmlns:xlink="http://www.w3.org/1999/xlink" x="0px" y="0px"
	 viewBox="0 0 50 50" style="enable-background:new 0 0 50 50;" xml:space="preserve">
<style type="text/css">
	.st0{fill:#FFCB00;}
	.st1{fill:#FFD97B;}
	.st2{fill:#E69500;}
	.st3{fill:#F8F8F8;}
	.st4{fill:#FF8A00;}
	.st5{fill:#005CD4;}
	.st6{fill:#FFB75B;}
	.st7{fill:#FF6000;}
	.st8{fill:#3E82F5;}
	.st9{fill:#343B88;}
	.st10{opacity:0.3;fill:#FFFFFF;}
</style>
<g>
	<g>
		<g>
			<g>
				<g>
					<g>
						<g>
							<g>
								<rect x="5" y="8.8" class="st0" width="14.1" height="3.1"/>
							</g>
							<g>
								<rect x="5" y="8.8" class="st1" width="14.1" height="0.8"/>
							</g>
							<g>
								<g>
									<path class="st2" d="M8.3,11c-0.4,0-0.6-0.3-0.6-0.6l0,0c0-0.6-0.1-1.1-0.3-1.6H5V12h14.1v-1H8.3z"/>
								</g>
								<g>
									<circle class="st0" cx="3.5" cy="10.4" r="3.5"/>
								</g>
								<g>
									<path class="st2" d="M6.7,8.9c0,0.1,0,0.2,0,0.2c0,1.8-1.4,3.2-3.2,3.2s-3.2-1.4-3.2-3.2c0-0.1,0-0.2,0-0.2
										C0.1,9.4,0,9.9,0,10.4c0,1.9,1.6,3.5,3.5,3.5S7,12.3,7,10.4C7,9.9,6.9,9.4,6.7,8.9z"/>
								</g>
								<g>
									<ellipse class="st3" cx="3.5" cy="8.4" rx="1.8" ry="0.9"/>
								</g>
							</g>
						</g>
						<g>
							<g>
								<rect x="30.9" y="8.9" class="st0" width="14.1" height="3.1"/>
							</g>
							<g>
								<rect x="30.9" y="8.8" class="st1" width="14.1" height="0.8"/>
							</g>
							<g>
								<g>
									<path class="st2" d="M41.7,11c0.4,0,0.6-0.3,0.6-0.6l0,0c0-0.6,0.1-1.1,0.3-1.6H45V12H30.9v-1H41.7z"/>
								</g>
								<g>
									<circle class="st0" cx="46.5" cy="10.4" r="3.5"/>
								</g>
								<g>
									<path class="st2" d="M43.3,8.9c0,0.1,0,0.2,0,0.2c0,1.8,1.4,3.2,3.2,3.2s3.2-1.4,3.2-3.2c0-0.1,0-0.2,0-0.2
										c0.2,0.4,0.3,0.9,0.3,1.5c0,1.9-1.6,3.5-3.5,3.5S43,12.3,43,10.4C43,9.9,43.1,9.4,43.3,8.9z"/>
								</g>
								<g>
									<ellipse class="st3" cx="46.5" cy="8.4" rx="1.8" ry="0.9"/>
								</g>
							</g>
						</g>
					</g>
					<g>
						<path class="st4" d="M38.7,6.9H11.3c-0.9,0-1.7,0.7-1.7,1.7v28.1c0,1.4,0.7,2.7,1.9,3.4L23,46.8c1.2,0.7,2.8,0.7,4,0L38.5,40
							c1.2-0.7,1.9-2,1.9-3.4v-28C40.4,7.6,39.7,6.9,38.7,6.9z"/>
					</g>
					<g>
						<polygon class="st5" points="34.2,6.9 34.2,42.6 37,40.9 37,6.9 						"/>
					</g>
					<g>
						<polygon class="st5" points="15.8,6.9 13,6.9 13,40.9 15.8,42.6 						"/>
					</g>
					<g>
						<path class="st6" d="M38.5,38.3L27,45.1c-1.2,0.7-2.8,0.7-4,0l-11.5-6.8c-1.2-0.7-1.9-2-1.9-3.4v1.7c0,1.4,0.7,2.7,1.9,3.4
							L23,46.8c1.2,0.7,2.8,0.7,4,0L38.5,40c1.2-0.7,1.9-2,1.9-3.4v-1.7C40.4,36.3,39.7,37.6,38.5,38.3z"/>
					</g>
					<g>
						<path class="st7" d="M38.7,6.9H11.3c-0.9,0-1.7,0.7-1.7,1.7v0.2h30.8V8.6C40.4,7.6,39.7,6.9,38.7,6.9z"/>
					</g>
					<g>
						<g>
							<polygon class="st8" points="34.2,42.6 37,40.9 37,39.2 34.2,40.8 							"/>
						</g>
						<g>
							<rect x="34.2" y="6.9" class="st9" width="2.8" height="1.9"/>
						</g>
						<g>
							<polygon class="st8" points="15.8,42.6 15.8,40.8 13,39.2 13,40.9 14.6,41.8 							"/>
						</g>
						<g>
							<rect x="13" y="6.9" class="st9" width="2.8" height="1.9"/>
						</g>
					</g>
				</g>
				<g>
					<path class="st3" d="M25.4,27.5c-0.2,0.2-0.5,0.4-0.6,0.6c-0.2,0.2-0.4,0.6-0.7,1.1c0.3,0,0.7,0,1.3,0c0.7,0,1.3,0,1.7,0
						c0.8,0,1.5,0,2.1,0c0.1,0.3,0.2,0.7,0.2,1.1v0.3v0.9c0,0.2,0,0.4,0,0.5c0,0.1,0,0.1-0.1,0.1c0,0-0.1,0-0.3,0l-7.4,0.1H21
						c-0.2,0-0.3,0-0.4,0s-0.2,0-0.2,0c0.1-0.7,0.1-1.2,0.1-1.6c0-0.8,0.1-1.4,0.1-1.9c0.1-0.5,0.2-0.9,0.5-1.4
						c0.5-0.6,1.4-1.2,2.6-2c0.7-0.4,1.2-0.8,1.7-1.1c0.2-0.1,0.3-0.3,0.4-0.5s0.2-0.5,0.2-0.8s-0.1-0.6-0.2-0.9s-0.3-0.4-0.6-0.4
						c-0.4,0-0.7,0.2-0.8,0.7c-0.1,0.4-0.2,1-0.3,1.7c-0.8,0.1-1.5,0.2-2.3,0.2c-0.4,0-0.8,0-1.2-0.1c-0.1-0.5-0.1-0.9-0.1-1.3
						c0-0.6,0.1-1.2,0.3-1.8c0.2-0.6,0.5-1.1,0.9-1.5c0.3-0.4,0.8-0.7,1.5-0.9c0.7-0.2,1.4-0.3,2.1-0.3c0.9,0,1.6,0.1,2.2,0.3
						c0.6,0.3,1.1,0.8,1.5,1.4s0.6,1.2,0.7,2v0.2v0.2c0,0.6,0,1.1,0,1.4c-0.1,0.8-0.4,1.4-0.9,1.8c-0.5,0.5-1.2,0.9-2.1,1.3
						C26,27.1,25.6,27.3,25.4,27.5z"/>
				</g>
			</g>
			<path class="st10" d="M11.7,32c12.9,0,23.9-7.8,28.7-18.9V8.6c0-0.9-0.7-1.7-1.7-1.7H11.3c-0.9,0-1.7,0.7-1.7,1.7v23.3
				C10.3,31.9,11,32,11.7,32z"/>
		</g>
		<path class="st3" d="M36.6,12.9l0.7-2.9c0.2-0.7,0.7-1.3,1.5-1.5l2.9-0.7c1-0.2,1-1.7,0-2l-2.9-0.7C38,5,37.5,4.4,37.3,3.7
			l-0.7-2.9c-0.2-1-1.7-1-2,0l-0.7,2.9c-0.2,0.7-0.7,1.3-1.5,1.5l-2.9,0.7c-1,0.2-1,1.7,0,2l2.9,0.7c0.7,0.2,1.3,0.7,1.5,1.5
			l0.7,2.9C34.9,14,36.4,14,36.6,12.9z"/>
	</g>
</g>
</svg>
