<?xml version="1.0" encoding="utf-8"?>
<!-- Generator: Adobe Illustrator 27.2.0, SVG Export Plug-In . SVG Version: 6.00 Build 0)  -->
<svg version="1.1" id="Layer_1" xmlns="http://www.w3.org/2000/svg" xmlns:xlink="http://www.w3.org/1999/xlink" x="0px" y="0px"
	 viewBox="0 0 50 50" style="enable-background:new 0 0 50 50;" xml:space="preserve">
<style type="text/css">
	.st0{fill:#FFCB00;}
	.st1{fill:#FFD97B;}
	.st2{fill:#E69500;}
	.st3{fill:#F8F8F8;}
	.st4{fill:#FF2766;}
	.st5{fill:#FF5B79;}
	.st6{fill:#DC0148;}
	.st7{opacity:0.3;fill:#FFFFFF;}
</style>
<g>
	<g>
		<g>
			<g>
				<g>
					<g>
						<rect x="4.5" y="6.5" class="st0" width="12.5" height="2.8"/>
					</g>
					<g>
						<rect x="4.5" y="6.5" class="st1" width="12.5" height="0.7"/>
					</g>
					<g>
						<g>
							<path class="st2" d="M7.4,8.4c-0.3,0-0.6-0.3-0.6-0.6l0,0c0-0.5-0.1-1-0.3-1.4h-2v2.8H17V8.4H7.4z"/>
						</g>
						<g>
							<circle class="st0" cx="3.1" cy="7.9" r="3.1"/>
						</g>
						<g>
							<path class="st2" d="M6,6.6c0,0.1,0,0.1,0,0.2c0,1.6-1.3,2.8-2.8,2.8c-1.6,0-2.8-1.3-2.8-2.8c0-0.1,0-0.1,0-0.2
								C0.1,7,0,7.4,0,7.9C0,9.6,1.4,11,3.1,11s3.1-1.4,3.1-3.1C6.2,7.4,6.1,7,6,6.6z"/>
						</g>
						<g>
							<ellipse class="st3" cx="3.1" cy="6.1" rx="1.6" ry="0.8"/>
						</g>
					</g>
				</g>
				<g>
					<g>
						<rect x="33" y="6.4" class="st0" width="12.5" height="2.8"/>
					</g>
					<g>
						<rect x="33" y="6.4" class="st1" width="12.5" height="0.7"/>
					</g>
					<g>
						<g>
							<path class="st2" d="M42.6,8.4c0.3,0,0.6-0.3,0.6-0.6l0,0c0-0.5,0.1-1,0.3-1.4h2.1v2.8H33V8.4H42.6z"/>
						</g>
						<g>
							<circle class="st0" cx="46.9" cy="7.9" r="3.1"/>
						</g>
						<g>
							<path class="st2" d="M44,6.6c0,0.1,0,0.1,0,0.2c0,1.6,1.3,2.8,2.8,2.8c1.6,0,2.8-1.3,2.8-2.8c0-0.1,0-0.1,0-0.2
								C49.9,7,50,7.4,50,7.9c0,1.7-1.4,3.1-3.1,3.1c-1.7,0-3.1-1.4-3.1-3.1C43.8,7.4,43.9,7,44,6.6z"/>
						</g>
						<g>
							<ellipse class="st3" cx="46.9" cy="6.1" rx="1.6" ry="0.8"/>
						</g>
					</g>
				</g>
			</g>
			<g>
				<g>
					<path class="st4" d="M37.8,4.8c-8.6,0-17.1,0-25.7,0c-0.9,0-1.9,0.6-2.2,1.4C6.3,14.1,5.8,23,8.1,31.4c0.3,1.3,1.5,2.4,3,3
						c4.6,2,8.8,4,12.2,5.9c1.1,0.6,2.4,0.6,3.5,0c3.4-1.9,7.7-3.9,12.3-5.9c1.4-0.6,2.6-1.8,3-3C44.4,23,43.9,14,40.2,6.1
						C39.7,5.4,38.7,4.8,37.8,4.8z"/>
				</g>
				<g>
					<path class="st0" d="M33.6,4.8c3.1,9.9,3.1,21.6,0.4,31.9c1-0.5,2.1-1,3.2-1.4c3-10,2.8-21.1-1-30.5
						C35.4,4.8,34.5,4.8,33.6,4.8z"/>
				</g>
				<g>
					<path class="st0" d="M16.4,4.8c-0.9,0-1.7,0-2.6,0c-3.7,9.4-4,20.5-1,30.5c1.1,0.5,2.2,1,3.2,1.4C13.3,26.4,13.4,14.6,16.4,4.8
						z"/>
				</g>
				<g>
					<path class="st5" d="M39.5,32.9c-4.7,2-9,4-12.6,5.9c-1.2,0.6-2.5,0.6-3.7,0c-3.6-1.9-7.9-3.9-12.6-5.9
						c-1.5-0.6-2.6-1.8-2.9-3.1c0.1,0.5,0.3,1.1,0.4,1.6c0.3,1.3,1.5,2.4,3,3c4.6,2,8.8,4,12.2,5.9c1.1,0.6,2.4,0.6,3.5,0
						c3.4-1.9,7.7-3.9,12.3-5.9c1.4-0.6,2.6-1.8,3-3c0.1-0.5,0.3-1,0.4-1.6C42.1,31.1,40.9,32.3,39.5,32.9z"/>
				</g>
				<g>
					<path class="st6" d="M37.8,4.8c-8.6,0-17.1,0-25.7,0c-0.9,0-1.9,0.6-2.2,1.4c0,0.1-0.1,0.1-0.1,0.2c10.1,0,20.2,0,30.4,0
						c0-0.1-0.1-0.1-0.1-0.2C39.7,5.4,38.7,4.8,37.8,4.8z"/>
				</g>
				<g>
					<g>
						<path class="st1" d="M34,36.7c1-0.5,2.1-1,3.2-1.4c0.2-0.5,0.3-1,0.4-1.5c-1.1,0.5-2.2,1-3.3,1.5C34.3,35.7,34.2,36.2,34,36.7
							z"/>
					</g>
					<g>
						<path class="st2" d="M36.8,6.4c-0.2-0.5-0.4-1.1-0.6-1.6c-0.9,0-1.7,0-2.6,0c0.2,0.5,0.3,1.1,0.5,1.6
							C35,6.4,35.9,6.4,36.8,6.4z"/>
					</g>
					<g>
						<path class="st1" d="M16,36.7c-0.1-0.5-0.3-1-0.4-1.5c-1.1-0.5-2.1-1-3.3-1.5c0.1,0.5,0.3,1,0.4,1.5c0.6,0.3,1.2,0.6,1.8,0.8
							C15.1,36.3,15.5,36.5,16,36.7z"/>
					</g>
					<g>
						<path class="st2" d="M15.9,6.4c0.1-0.5,0.3-1.1,0.5-1.6c-0.9,0-1.7,0-2.6,0c-0.2,0.5-0.4,1.1-0.6,1.6
							C14.1,6.4,15,6.4,15.9,6.4z"/>
					</g>
				</g>
				<g>
					<path class="st3" d="M24.5,27.2c0-0.6,0-1.2,0-1.8c0-0.8,0-1.9,0.1-3.4c0-0.2,0-0.4,0-0.6c0.1-1.1,0.1-1.9,0.1-2.4
						c-0.2,0.2-0.4,0.3-0.7,0.3c-0.1,0-0.4,0-1-0.1c-0.5-0.1-1-0.2-1.5-0.3c-0.4-0.1-0.7-0.2-0.7-0.3c0-0.2,0.3-0.6,0.7-1.2
						c0.4-0.6,0.9-1.2,1.4-1.8c0.5-0.6,0.8-0.9,0.9-1c0.1,0,0.2,0,0.3,0c0.7,0,1.4,0,1.9,0c1,0,1.8,0,2.7,0.1c0.1,0.8,0.2,1.8,0.2,3
						c0,0.9,0,2.3-0.1,4c-0.1,1.5-0.1,2.8-0.2,4.1c0,0.6,0,1,0,1.2c0,0.3-0.6,0.4-1.7,0.4C26.2,27.4,25.3,27.4,24.5,27.2z"/>
				</g>
				<path class="st7" d="M9.7,27.2c14.1,0.1,29.4-7.3,32-17.2c-0.4-1.3-0.9-2.6-1.5-3.9c-0.4-0.8-1.4-1.4-2.2-1.4
					c-8.6,0-17.1,0-25.7,0c-0.9,0-1.9,0.6-2.2,1.4c-3,6.6-3.9,13.9-2.8,21C8,27.2,8.8,27.2,9.7,27.2z"/>
			</g>
		</g>
		<path class="st3" d="M16,7.8c-0.6-1.1-1-2.3-0.7-3.5c0.3-1.6,1.5-2.8,2.6-3.9c-1.3,1.3-2.8,2.7-4.7,2.8c-1.1,0-2.2-0.4-3.1-1
			S8.4,0.8,7.7,0c0.8,0.9,1.6,1.7,2.1,2.8c0.6,1,0.9,2.2,0.8,3.3C10.3,7.7,9.2,9,8,10.2c0.8-0.9,1.7-1.7,2.8-2.1
			c2.8-1.2,5.6,0.6,7.5,2.5C17.5,9.7,16.6,8.9,16,7.8z"/>
	</g>
</g>
</svg>
