<?xml version="1.0" encoding="utf-8"?>
<!-- Generator: Adobe Illustrator 27.2.0, SVG Export Plug-In . SVG Version: 6.00 Build 0)  -->
<svg version="1.1" id="Layer_1" xmlns="http://www.w3.org/2000/svg" xmlns:xlink="http://www.w3.org/1999/xlink" x="0px" y="0px"
	 viewBox="0 0 50 50" style="enable-background:new 0 0 50 50;" xml:space="preserve">
<style type="text/css">
	.st0{fill:#FFCB00;}
	.st1{fill:#FFD97B;}
	.st2{fill:#E69500;}
	.st3{fill:#F8F8F8;}
	.st4{fill:#00C82D;}
	.st5{fill:#D8F1FF;}
	.st6{fill:#3CE062;}
	.st7{fill:#008D18;}
	.st8{fill:#B3CCEC;}
	.st9{opacity:0.3;fill:#FFFFFF;}
</style>
<g>
	<g>
		<g>
			<g>
				<g>
					<rect x="5" y="7.2" class="st0" width="14.1" height="3"/>
				</g>
				<g>
					<rect x="5" y="7.2" class="st1" width="14.1" height="0.7"/>
				</g>
				<g>
					<g>
						<path class="st2" d="M8.3,9.4c-0.4,0-0.6-0.3-0.6-0.6l0,0c0-0.5-0.1-1.1-0.3-1.5H5v3h14.1V9.4H8.3z"/>
					</g>
					<g>
						<path class="st0" d="M7,8.7c0,1.9-1.6,3.4-3.5,3.4S0,10.6,0,8.7s1.6-3.4,3.5-3.4S7,6.9,7,8.7z"/>
					</g>
					<g>
						<path class="st2" d="M6.7,7.3c0,0.1,0,0.1,0,0.2c0,1.7-1.4,3.1-3.2,3.1S0.3,9.2,0.3,7.5c0-0.1,0-0.2,0-0.2
							C0.1,7.8,0,8.2,0,8.7c0,1.9,1.6,3.4,3.5,3.4S7,10.6,7,8.7C7,8.2,6.9,7.8,6.7,7.3z"/>
					</g>
					<g>
						<path class="st3" d="M5.3,6.8c0,0.5-0.8,0.8-1.8,0.8S1.7,7.2,1.7,6.8C1.7,6.3,2.5,6,3.5,6S5.3,6.3,5.3,6.8z"/>
					</g>
				</g>
			</g>
			<g>
				<g>
					<rect x="30.9" y="7.3" class="st0" width="14.1" height="3"/>
				</g>
				<g>
					<rect x="30.9" y="7.3" class="st1" width="14.1" height="0.7"/>
				</g>
				<g>
					<g>
						<path class="st2" d="M41.7,9.4c0.4,0,0.6-0.3,0.6-0.6l0,0c0-0.5,0.1-1.1,0.3-1.5H45v3H30.9V9.4H41.7z"/>
					</g>
					<g>
						<path class="st0" d="M43,8.7c0,1.9,1.6,3.4,3.5,3.4S50,10.6,50,8.7s-1.6-3.4-3.5-3.4S43,6.9,43,8.7z"/>
					</g>
					<g>
						<path class="st2" d="M43.3,7.3c0,0.1,0,0.1,0,0.2c0,1.7,1.4,3.1,3.2,3.1s3.2-1.4,3.2-3.1c0-0.1,0-0.2,0-0.2
							C49.9,7.8,50,8.2,50,8.7c0,1.9-1.6,3.4-3.5,3.4S43,10.6,43,8.7C43,8.2,43.1,7.8,43.3,7.3z"/>
					</g>
					<g>
						<path class="st3" d="M44.7,6.8c0,0.5,0.8,0.8,1.8,0.8s1.8-0.4,1.8-0.8c0-0.5-0.8-0.8-1.8-0.8S44.7,6.3,44.7,6.8z"/>
					</g>
				</g>
			</g>
		</g>
		<g>
			<g>
				<path class="st4" d="M38.8,5.6c-9.1,1.2-18.4,1.2-27.5,0c-1-0.1-1.8,0.5-2,1.4c-1.5,8.9-2.9,17.9-4.4,26.8
					c-0.2,1.3,0.5,2.7,2,3.6c4.8,2.9,9.8,5.5,15.2,7.8c1.7,0.8,3.9,0.8,5.7,0c5.3-2.3,10.4-4.9,15.2-7.8c1.5-0.9,2.3-2.3,2-3.6
					c-1.5-8.9-2.9-17.9-4.4-26.8C40.5,6.1,39.7,5.5,38.8,5.6z"/>
			</g>
			<g>
				<path class="st5" d="M34.2,6.1c1.1,11.5,2.2,22.9,3.3,34.4c1.2-0.6,2.4-1.3,3.6-2C39.8,27.6,38.4,16.7,37,5.8
					C36.1,6,35.2,6,34.2,6.1z"/>
			</g>
			<g>
				<path class="st5" d="M15.8,6.1C14.8,6,13.9,6,13,5.8c-1.4,10.9-2.8,21.8-4.1,32.7c1.2,0.7,2.4,1.3,3.6,2
					C13.5,29,14.7,17.6,15.8,6.1z"/>
			</g>
			<g>
				<path class="st6" d="M42.8,35.7c-4.7,2.8-9.7,5.4-15,7.7c-1.7,0.8-3.9,0.8-5.6,0c-5.3-2.3-10.3-4.9-15-7.7
					c-1.5-0.9-2.2-2.3-2-3.6c-0.1,0.6-0.2,1.1-0.3,1.7c-0.2,1.3,0.5,2.7,2,3.6c4.8,2.9,9.8,5.5,15.2,7.8c1.7,0.8,3.9,0.8,5.7,0
					c5.3-2.3,10.4-4.9,15.2-7.8c1.5-0.9,2.3-2.3,2-3.6c-0.1-0.6-0.2-1.1-0.3-1.7C45,33.5,44.3,34.8,42.8,35.7z"/>
			</g>
			<g>
				<path class="st7" d="M38.8,5.6c-9.1,1.2-18.4,1.2-27.5,0c-1-0.1-1.8,0.5-2,1.4c0,0.1,0,0.2,0,0.2c10.4,1.6,21,1.6,31.4,0
					c0-0.1,0-0.2,0-0.2C40.5,6.1,39.7,5.5,38.8,5.6z"/>
			</g>
			<g>
				<g>
					<path class="st3" d="M37.6,40.5c1.2-0.6,2.4-1.3,3.6-2c-0.1-0.6-0.1-1.1-0.2-1.7c-1.2,0.7-2.3,1.3-3.5,2
						C37.5,39.4,37.5,39.9,37.6,40.5z"/>
				</g>
				<g>
					<path class="st8" d="M37.3,7.7c-0.1-0.6-0.2-1.2-0.2-1.8c-1,0.1-1.9,0.1-2.9,0.2c0.1,0.6,0.1,1.2,0.2,1.8
						C35.4,7.9,36.3,7.8,37.3,7.7z"/>
				</g>
				<g>
					<path class="st3" d="M12.4,40.5c0.1-0.6,0.1-1.1,0.2-1.7c-1.2-0.6-2.4-1.3-3.5-2C9,37.4,9,37.9,8.9,38.5c0.7,0.4,1.4,0.8,2,1.1
						C11.4,39.9,11.9,40.2,12.4,40.5z"/>
				</g>
				<g>
					<path class="st8" d="M15.6,8c0.1-0.6,0.1-1.2,0.2-1.8C14.8,6,13.9,6,13,5.8c-0.1,0.6-0.2,1.2-0.2,1.8C13.7,7.8,14.6,7.9,15.6,8
						z"/>
				</g>
			</g>
			<g>
				<path class="st3" d="M19.6,27.8C19.6,27.8,19.7,27.8,19.6,27.8c0-0.5,0-0.8,0-1.2c0.3,0,0.6,0,1,0c0.3,0,0.6,0,0.8,0
					c0.4,0,0.8-0.1,1.1,0c0.2,0,0.5,0,0.8,0.1c0.1,0.3,0.4,0.6,0.7,0.8c0.3,0.2,0.7,0.4,1,0.4s0.6-0.1,0.8-0.4l0,0
					c0.1-0.2,0.2-0.4,0.2-0.6s0-0.3-0.1-0.5s-0.2-0.3-0.3-0.4c-0.2-0.1-0.4-0.2-0.7-0.2c-0.2-0.1-0.5-0.1-0.7-0.1
					c-0.3,0-0.7,0-1.2,0.1c-0.2-0.3-0.3-0.7-0.3-1c0-0.1,0-0.4,0.1-0.7c0-0.2,0-0.4,0-0.6s0-0.4,0-0.5c0.4-0.1,0.9-0.2,1.5-0.2
					s1-0.1,1.3-0.2s0.4-0.4,0.4-0.9c0-0.3-0.1-0.5-0.3-0.7c-0.2-0.1-0.3-0.2-0.6-0.2c-0.3,0-0.7,0.1-1,0.3c-0.4,0.2-0.6,0.5-0.8,0.7
					c-0.3,0-1.1,0.1-2.1,0c-0.5,0-1-0.1-1.5-0.1c0-0.3,0-0.5,0-0.8c0,0,0-0.2,0-0.4c0-0.2,0.1-0.5,0.1-0.7l0,0
					c0.3-0.8,1-1.4,1.9-1.8c1-0.4,2-0.6,3.2-0.6c0.9,0,1.8,0.1,2.7,0.4c0.8,0.3,1.5,0.7,1.9,1.1c0.1,0.1,0.2,0.4,0.3,0.6
					c0.1,0.3,0.1,0.5,0.1,0.8c0.1,1,0.1,1.8,0.2,2.5c0,0.9,0.1,2.1,0.1,3.8c0,0.1,0,0.3,0,0.5c0,0.4,0,0.7-0.1,0.9
					c0,0.3-0.1,0.5-0.3,0.8c-0.2,0.4-0.6,0.8-1,1.1c-0.4,0.3-1,0.6-1.6,0.7C26.8,31,26,31.1,25,31.1c-0.6,0-1.2,0-1.8-0.1
					c-0.4,0-0.7-0.1-1-0.2c-0.1,0-0.1,0-0.2,0s-0.1,0-0.2-0.1l0,0c-0.4-0.1-0.7-0.2-0.9-0.3c-0.2-0.1-0.4-0.2-0.4-0.2
					c-0.5-0.4-0.8-0.9-0.8-1.4C19.7,28.5,19.7,28.2,19.6,27.8z"/>
			</g>
			<path class="st9" d="M8.4,29.7c16.4,2.2,30.1-7.1,33-18.5c-0.2-1.4-0.5-2.9-0.7-4.3c-0.1-0.9-1-1.5-1.9-1.4
				c-9.1,1.2-18.4,1.2-27.5,0c-1,0-1.8,0.6-2,1.5c-1.2,7.4-2.4,14.9-3.6,22.3C6.6,29.5,7.5,29.6,8.4,29.7z"/>
		</g>
		<path class="st3" d="M18,8.5c-0.7-1.1-1.1-2.5-0.8-3.8c0.3-1.7,1.7-3.1,2.9-4.2c-1.4,1.4-3.1,2.9-5.2,3c-1.2,0-2.4-0.4-3.5-1.1
			c-1-0.7-1.9-1.5-2.7-2.4c0.9,0.9,1.7,1.9,2.4,3c0.6,1.1,1,2.4,0.9,3.6c-0.2,1.8-1.6,3.2-2.8,4.5c0.9-0.9,1.9-1.8,3.2-2.3
			c3.1-1.3,6.3,0.6,8.4,2.7C19.6,10.6,18.7,9.7,18,8.5z"/>
	</g>
</g>
</svg>
